HIERARCHY
ROOT Hips
{
	OFFSET 0.000000 71.427986 0.000000
	CHANNELS 6 Xposition Yposition Zposition Xrotation Yrotation Zrotation
	JOINT Pelvis
	{
		OFFSET 0.000000 0.000000 0.000000
		CHANNELS 3 Xrotation Yrotation Zrotation
		JOINT LeftUpLeg
		{
			OFFSET 6.797100 -2.508499 -1.318700
			CHANNELS 3 Xrotation Yrotation Zrotation
			JOINT LeftLeg
			{
				OFFSET 0.069008 -29.241863 0.690200
				CHANNELS 3 Xrotation Yrotation Zrotation
				JOINT LeftFoot
				{
					OFFSET -0.069008 -29.568123 -0.266800
					CHANNELS 3 Xrotation Yrotation Zrotation
					JOINT LeftToeBase
					{
						OFFSET 3.145500 -8.631000 16.059900
						CHANNELS 3 Xrotation Yrotation Zrotation
						End Site
						{
							OFFSET 0.000000 18.501587 0.000000
						}
					}
				}
			}
			JOINT Left_ShortSleeve
			{
				OFFSET 0.265923 -10.480953 1.153800
				CHANNELS 3 Xrotation Yrotation Zrotation
				End Site
				{
					OFFSET 1.725763 19.823879 0.000000
				}
			}
		}
		JOINT RightUpLeg
		{
			OFFSET -6.797100 -2.508499 -1.318700
			CHANNELS 3 Xrotation Yrotation Zrotation
			JOINT RightLeg
			{
				OFFSET -0.082453 -29.241932 0.688000
				CHANNELS 3 Xrotation Yrotation Zrotation
				JOINT RightFoot
				{
					OFFSET 0.082453 -29.568058 -0.264600
					CHANNELS 3 Xrotation Yrotation Zrotation
					JOINT RightToeBase
					{
						OFFSET -3.115300 -8.682800 16.113400
						CHANNELS 3 Xrotation Yrotation Zrotation
						End Site
						{
							OFFSET 0.000000 18.567114 0.000000
						}
					}
				}
			}
			JOINT Right_ShortSleeve
			{
				OFFSET -0.265923 -10.480953 1.153800
				CHANNELS 3 Xrotation Yrotation Zrotation
				End Site
				{
					OFFSET -1.725766 19.823910 0.000000
				}
			}
		}
	}
	JOINT Spine
	{
		OFFSET 0.000000 13.368103 0.470500
		CHANNELS 3 Xrotation Yrotation Zrotation
		JOINT Spine1
		{
			OFFSET 0.147000 13.837402 0.538800
			CHANNELS 3 Xrotation Yrotation Zrotation
			JOINT Spine2
			{
				OFFSET 0.168000 16.242897 -1.435500
				CHANNELS 3 Xrotation Yrotation Zrotation
				JOINT Neck
				{
					OFFSET 0.217200 18.631500 -1.679100
					CHANNELS 3 Xrotation Yrotation Zrotation
					JOINT Head
					{
						OFFSET 0.000000 6.599396 1.385900
						CHANNELS 3 Xrotation Yrotation Zrotation
						JOINT Hat
						{
							OFFSET -0.532200 27.220596 -10.096100
							CHANNELS 3 Xrotation Yrotation Zrotation
							End Site
							{
								OFFSET 0.000000 22.029861 0.000000
							}
						}
						JOINT HairD
						{
							OFFSET -10.777400 17.437393 -1.325900
							CHANNELS 3 Xrotation Yrotation Zrotation
							JOINT HairD1
							{
								OFFSET -3.290299 -11.051193 1.062200
								CHANNELS 3 Xrotation Yrotation Zrotation
								End Site
								{
									OFFSET 0.000000 11.579437 0.000000
								}
							}
						}
						JOINT HairB
						{
							OFFSET -10.777400 17.437393 1.467900
							CHANNELS 3 Xrotation Yrotation Zrotation
							JOINT HairB1
							{
								OFFSET -1.561200 -12.956299 3.590200
								CHANNELS 3 Xrotation Yrotation Zrotation
								End Site
								{
									OFFSET 0.000000 13.534866 0.000000
								}
							}
						}
						JOINT HairA
						{
							OFFSET 9.713100 17.437393 1.467900
							CHANNELS 3 Xrotation Yrotation Zrotation
							JOINT HairA1
							{
								OFFSET 1.561200 -12.956299 3.590200
								CHANNELS 3 Xrotation Yrotation Zrotation
								End Site
								{
									OFFSET 0.000000 13.534866 0.000000
								}
							}
						}
						JOINT HairC
						{
							OFFSET 9.713100 17.437393 -1.325900
							CHANNELS 3 Xrotation Yrotation Zrotation
							JOINT HairC1
							{
								OFFSET 3.290300 -11.051193 1.062200
								CHANNELS 3 Xrotation Yrotation Zrotation
								End Site
								{
									OFFSET 0.000000 11.579437 0.000000
								}
							}
						}
					}
				}
				JOINT LeftShoulder
				{
					OFFSET 5.101800 15.108002 -2.763700
					CHANNELS 3 Xrotation Yrotation Zrotation
					JOINT LeftArm
					{
						OFFSET 9.825497 2.506317 -1.597400
						CHANNELS 3 Xrotation Yrotation Zrotation
						JOINT LeftForeArm
						{
							OFFSET 21.966244 0.000000 0.000000
							CHANNELS 3 Xrotation Yrotation Zrotation
							JOINT LeftHand
							{
								OFFSET 33.879036 0.000000 0.000000
								CHANNELS 3 Xrotation Yrotation Zrotation
								JOINT LeftHandThumb1
								{
									OFFSET 6.715286 -2.359680 3.363841
									CHANNELS 3 Xrotation Yrotation Zrotation
									JOINT LeftHandThumb2
									{
										OFFSET 2.507072 -1.447464 1.447461
										CHANNELS 3 Xrotation Yrotation Zrotation
										JOINT LeftHandThumb3
										{
											OFFSET 2.898338 -1.673355 1.673357
											CHANNELS 3 Xrotation Yrotation Zrotation
											End Site
											{
												OFFSET -0.295959 3.727692 -0.131651
											}
										}
									}
								}
								JOINT LeftHandIndex1
								{
									OFFSET 14.190811 -0.254547 3.840278
									CHANNELS 3 Xrotation Yrotation Zrotation
									JOINT LeftHandIndex2
									{
										OFFSET 3.551727 0.000000 -0.000000
										CHANNELS 3 Xrotation Yrotation Zrotation
										JOINT LeftHandIndex3
										{
											OFFSET 2.894196 0.000000 0.000000
											CHANNELS 3 Xrotation Yrotation Zrotation
											End Site
											{
												OFFSET -1.000603 2.690872 0.366626
											}
										}
									}
								}
								JOINT LeftHandMiddle1
								{
									OFFSET 13.776489 0.000000 0.000000
									CHANNELS 3 Xrotation Yrotation Zrotation
									JOINT LeftHandMiddle2
									{
										OFFSET 3.438232 0.000000 0.000000
										CHANNELS 3 Xrotation Yrotation Zrotation
										JOINT LeftHandMiddle3
										{
											OFFSET 3.691551 0.000000 0.000000
											CHANNELS 3 Xrotation Yrotation Zrotation
											End Site
											{
												OFFSET -1.082298 3.499527 0.457670
											}
										}
									}
								}
								JOINT LeftHandRing1
								{
									OFFSET 13.966164 -0.268127 -3.067488
									CHANNELS 3 Xrotation Yrotation Zrotation
									JOINT LeftHandRing2
									{
										OFFSET 3.162567 0.000000 0.000000
										CHANNELS 3 Xrotation Yrotation Zrotation
										JOINT LeftHandRing3
										{
											OFFSET 3.324348 0.000000 0.000000
											CHANNELS 3 Xrotation Yrotation Zrotation
											End Site
											{
												OFFSET -0.861900 3.184998 0.405154
											}
										}
									}
								}
								JOINT LeftHandPinky1
								{
									OFFSET 13.131393 -0.168503 -5.746925
									CHANNELS 3 Xrotation Yrotation Zrotation
									JOINT LeftHandPinky2
									{
										OFFSET 2.849182 0.000000 0.000000
										CHANNELS 3 Xrotation Yrotation Zrotation
										JOINT LeftHandPinky3
										{
											OFFSET 2.805038 0.000000 0.000000
											CHANNELS 3 Xrotation Yrotation Zrotation
											End Site
											{
												OFFSET -0.882500 2.642609 0.325652
											}
										}
									}
								}
							}
							JOINT Left_Sleeve
							{
								OFFSET 6.592125 -0.646545 0.805568
								CHANNELS 3 Xrotation Yrotation Zrotation
								End Site
								{
									OFFSET -0.000179 20.275787 -0.000000
								}
							}
						}
					}
				}
				JOINT RightShoulder
				{
					OFFSET -5.731700 15.108002 -2.763700
					CHANNELS 3 Xrotation Yrotation Zrotation
					JOINT RightArm
					{
						OFFSET -9.825497 2.506317 -1.597400
						CHANNELS 3 Xrotation Yrotation Zrotation
						JOINT RightForeArm
						{
							OFFSET -21.966242 0.000000 0.000000
							CHANNELS 3 Xrotation Yrotation Zrotation
							JOINT RightHand
							{
								OFFSET -33.879032 0.000000 0.000000
								CHANNELS 3 Xrotation Yrotation Zrotation
								JOINT RightHandThumb1
								{
									OFFSET -6.715286 -2.359680 3.363841
									CHANNELS 3 Xrotation Yrotation Zrotation
									JOINT RightHandThumb2
									{
										OFFSET -2.507072 -1.447464 1.447461
										CHANNELS 3 Xrotation Yrotation Zrotation
										JOINT RightHandThumb3
										{
											OFFSET -2.898338 -1.673355 1.673357
											CHANNELS 3 Xrotation Yrotation Zrotation
											End Site
											{
												OFFSET 0.295959 3.727692 -0.131651
											}
										}
									}
								}
								JOINT RightHandIndex1
								{
									OFFSET -14.190811 -0.254547 3.840278
									CHANNELS 3 Xrotation Yrotation Zrotation
									JOINT RightHandIndex2
									{
										OFFSET -3.551727 0.000000 -0.000000
										CHANNELS 3 Xrotation Yrotation Zrotation
										JOINT RightHandIndex3
										{
											OFFSET -2.894196 0.000000 0.000000
											CHANNELS 3 Xrotation Yrotation Zrotation
											End Site
											{
												OFFSET 1.000603 2.690872 0.366626
											}
										}
									}
								}
								JOINT RightHandMiddle1
								{
									OFFSET -13.776489 0.000000 0.000000
									CHANNELS 3 Xrotation Yrotation Zrotation
									JOINT RightHandMiddle2
									{
										OFFSET -3.438232 0.000000 0.000000
										CHANNELS 3 Xrotation Yrotation Zrotation
										JOINT RightHandMiddle3
										{
											OFFSET -3.691551 0.000000 0.000000
											CHANNELS 3 Xrotation Yrotation Zrotation
											End Site
											{
												OFFSET 1.082298 3.499527 0.457670
											}
										}
									}
								}
								JOINT RightHandRing1
								{
									OFFSET -13.966164 -0.268127 -3.067488
									CHANNELS 3 Xrotation Yrotation Zrotation
									JOINT RightHandRing2
									{
										OFFSET -3.162567 0.000000 0.000000
										CHANNELS 3 Xrotation Yrotation Zrotation
										JOINT RightHandRing3
										{
											OFFSET -3.324348 0.000000 0.000000
											CHANNELS 3 Xrotation Yrotation Zrotation
											End Site
											{
												OFFSET 0.861900 3.184998 0.405154
											}
										}
									}
								}
								JOINT RightHandPinky1
								{
									OFFSET -13.131393 -0.168503 -5.746925
									CHANNELS 3 Xrotation Yrotation Zrotation
									JOINT RightHandPinky2
									{
										OFFSET -2.849182 0.000000 0.000000
										CHANNELS 3 Xrotation Yrotation Zrotation
										JOINT RightHandPinky3
										{
											OFFSET -2.805038 0.000000 0.000000
											CHANNELS 3 Xrotation Yrotation Zrotation
											End Site
											{
												OFFSET 0.882500 2.642609 0.325652
											}
										}
									}
								}
							}
							JOINT Right_Sleeve
							{
								OFFSET -6.592125 -0.646545 0.805568
								CHANNELS 3 Xrotation Yrotation Zrotation
								End Site
								{
									OFFSET 0.000179 20.275787 -0.000000
								}
							}
						}
					}
				}
				JOINT Bind_Right_JacketString
				{
					OFFSET -3.534800 11.969597 7.200700
					CHANNELS 3 Xrotation Yrotation Zrotation
					JOINT Bind_Right_JacketString1
					{
						OFFSET -0.319900 -6.102600 2.794100
						CHANNELS 3 Xrotation Yrotation Zrotation
						End Site
						{
							OFFSET 0.000000 6.719452 0.000000
						}
					}
				}
				JOINT Bind_Left_JacketString
				{
					OFFSET 2.904800 11.969597 7.200700
					CHANNELS 3 Xrotation Yrotation Zrotation
					JOINT Bind_Left_JacketString1
					{
						OFFSET 0.364800 -5.904503 3.186800
						CHANNELS 3 Xrotation Yrotation Zrotation
						End Site
						{
							OFFSET 0.000000 6.719513 0.000000
						}
					}
				}
				JOINT HairE
				{
					OFFSET 5.915200 17.612701 -11.592200
					CHANNELS 3 Xrotation Yrotation Zrotation
					JOINT HairE1
					{
						OFFSET 0.289200 -7.171898 -1.284500
						CHANNELS 3 Xrotation Yrotation Zrotation
						End Site
						{
							OFFSET 0.000000 7.291756 0.000000
						}
					}
				}
				JOINT HairF
				{
					OFFSET -0.864800 17.612701 -11.592200
					CHANNELS 3 Xrotation Yrotation Zrotation
					JOINT HairF1
					{
						OFFSET 0.000000 -14.087097 -2.127501
						CHANNELS 3 Xrotation Yrotation Zrotation
						End Site
						{
							OFFSET 0.000000 14.246841 0.000000
						}
					}
				}
				JOINT HairG
				{
					OFFSET -8.087700 17.612701 -11.592200
					CHANNELS 3 Xrotation Yrotation Zrotation
					JOINT HairG1
					{
						OFFSET -0.293600 -6.081398 -0.910100
						CHANNELS 3 Xrotation Yrotation Zrotation
						End Site
						{
							OFFSET 0.000000 6.156120 0.000000
						}
					}
				}
			}
		}
	}
	JOINT Pouch
	{
		OFFSET 0.000000 4.394501 10.847300
		CHANNELS 3 Xrotation Yrotation Zrotation
		End Site
		{
			OFFSET 0.000000 21.880577 0.000000
		}
	}
	JOINT Bag
	{
		OFFSET -13.229000 4.813004 -0.593300
		CHANNELS 3 Xrotation Yrotation Zrotation
		End Site
		{
			OFFSET 0.000000 21.880577 0.000000
		}
	}
	JOINT OccupyGuyFacialAnim_Joint
	{
		OFFSET 1.000000 -70.206398 -1.655000
		CHANNELS 3 Xrotation Yrotation Zrotation
		End Site
		{
			OFFSET 0.000000 21.880577 0.000000
		}
	}
}
MOTION
Frames: 4
Frame Time: 0.033333
-0.183405 78.481552 -1.637413 -95.365908 -7.219869 0.342919 0.000000 -0.000001 -0.000000 6.875391 16.017487 8.480108 5.502331 -0.872558 5.221074 34.219210 30.247810 -30.445179 0.000003 -0.000000 0.000000 0.000000 0.000000 0.000000 0.826597 -15.895973 -12.481245 7.905122 -1.526341 -5.013824 35.317610 -30.137144 30.497201 -0.000001 -0.000002 0.000001 0.000000 0.000000 -0.000000 0.806710 0.592885 -2.083239 2.166856 1.742098 -0.647242 2.175973 1.730778 -0.649602 -3.748928 13.158872 -4.240261 2.827199 47.143250 -4.195784 0.000000 0.000004 0.000000 0.000000 0.000004 0.000000 0.000000 0.000004 0.000000 0.000000 0.000004 0.000000 -0.000000 0.000002 0.000000 0.000000 0.000004 0.000000 -0.000000 0.000002 0.000000 0.000000 0.000004 0.000000 0.000000 0.000004 0.000000 0.563164 0.114232 -3.287215 22.145999 -32.794060 -61.667346 0.000477 -79.577605 0.000488 -1.631912 7.060320 -14.772275 -5.218583 -3.359715 5.596914 7.385518 23.148025 2.272605 -0.000001 0.000003 -0.000005 0.915768 5.403951 -29.714168 0.382364 2.083591 -20.795011 0.000000 -0.000001 -0.000000 0.656294 4.925770 -25.952639 0.379111 2.075028 -20.705420 0.000000 0.000001 0.000003 0.574708 4.751492 -24.069213 0.379107 2.075032 -20.705413 -0.000002 0.000000 -0.000002 0.322892 4.082521 -17.072556 0.379113 2.075040 -20.705408 -0.000001 0.000003 0.000003 0.000002 -0.000001 -0.000002 0.734233 3.259855 9.953831 38.153788 29.451315 34.439176 0.000343 102.443637 -0.000331 -38.622978 12.192850 12.532309 -8.245047 0.297086 -8.931527 7.579954 -24.795262 -2.906998 -0.000000 0.000004 -0.000005 0.905458 -3.314675 34.539457 0.217998 -1.409593 17.581791 -0.000000 -0.000001 0.000000 -0.242000 -3.204348 32.825346 0.218123 -1.409975 17.586660 0.000001 -0.000001 -0.000003 -0.300130 -2.822088 28.489349 0.217997 -1.409601 17.581786 0.000001 0.000001 -0.000003 0.330074 -3.878167 20.013568 0.218165 -1.410137 17.588685 -0.000002 0.000001 0.000001 -0.000001 0.000001 -0.000001 -0.000000 0.000000 0.000000 -0.000000 0.000000 -0.000000 -0.000000 0.000000 0.000000 -0.000000 0.000000 0.000000 -0.000000 0.000000 0.000000 -0.000000 0.000000 0.000000 -0.000000 0.000000 0.000000 -0.000000 0.000000 0.000000 -0.000000 0.000000 0.000000 -0.000000 0.000000 0.000000 0.000000 -0.000001 -0.000000 0.000000 -0.000001 -0.000000 0.000000 -0.000001 -0.000000 
-0.183595 78.477303 -1.639450 -95.468129 -7.215256 0.345387 -0.000000 -0.000000 -0.000000 6.987908 16.049672 8.464210 5.476117 -0.896663 5.221082 34.215669 30.248743 -30.445196 0.000002 -0.000002 0.000000 0.000000 -0.000000 -0.000000 0.906597 -15.915063 -12.503574 7.934058 -1.497815 -5.013837 35.306047 -30.137079 30.495545 -0.000001 0.000002 -0.000000 0.000000 0.000000 -0.000000 0.932047 0.593034 -2.100909 2.185832 1.742099 -0.647244 2.195118 1.730777 -0.649603 -3.558040 14.441503 -4.000335 2.891575 45.820157 -4.587262 -0.000001 0.000005 -0.000000 -0.000001 0.000005 -0.000000 -0.000001 0.000005 -0.000001 -0.000001 0.000005 -0.000000 0.000000 0.000004 -0.000000 -0.000001 0.000005 -0.000000 0.000000 0.000004 -0.000000 -0.000001 0.000005 -0.000000 -0.000001 0.000005 -0.000000 0.563768 0.124701 -3.290602 22.141617 -32.800665 -61.629548 -0.000282 -79.623292 -0.000283 -1.596810 6.998873 -14.723299 -5.218584 -3.359714 5.596909 7.385523 23.148023 2.272605 -0.000002 0.000001 -0.000001 0.915767 5.403954 -29.714168 0.382366 2.083591 -20.795011 0.000001 0.000001 -0.000000 0.656294 4.925772 -25.952639 0.379110 2.075032 -20.705421 -0.000001 -0.000002 0.000000 0.574704 4.751492 -24.069214 0.379108 2.075041 -20.705413 -0.000003 0.000001 -0.000001 0.322886 4.082519 -17.072555 0.379112 2.075044 -20.705408 0.000001 0.000001 -0.000001 0.000001 -0.000003 -0.000003 0.735897 3.250397 9.953739 38.142088 29.463496 34.410223 -0.000078 102.443630 0.000078 -38.620089 12.203485 12.518684 -8.245043 0.297086 -8.931532 7.579953 -24.795262 -2.907003 -0.000002 0.000000 -0.000001 0.905458 -3.314671 34.539454 0.217997 -1.409594 17.581788 -0.000002 -0.000000 0.000002 -0.241999 -3.204344 32.825343 0.218123 -1.409975 17.586661 0.000001 0.000000 -0.000001 -0.300128 -2.822084 28.489346 0.217996 -1.409601 17.581788 -0.000001 0.000001 0.000000 0.330076 -3.878164 20.013561 0.218167 -1.410137 17.588683 -0.000001 0.000001 -0.000001 -0.000000 0.000001 0.000002 -0.000000 0.000000 0.000000 -0.000000 0.000000 0.000000 -0.000000 0.000000 -0.000000 -0.000000 0.000000 -0.000000 -0.000000 0.000000 0.000000 -0.000000 0.000000 0.000000 -0.000000 0.000000 -0.000000 -0.000000 0.000000 -0.000000 -0.000000 0.000000 0.000000 -0.000000 0.000000 0.000000 -0.000000 -0.000000 -0.000000 -0.000000 -0.000000 -0.000000 -0.000000 -0.000000 -0.000000 
-0.183712 78.473175 -1.641510 -95.571927 -7.215150 0.345128 -0.000000 -0.000000 -0.000000 7.094500 16.104230 8.452450 5.459541 -0.954464 5.221104 34.212373 30.249976 -30.443868 0.000002 0.000002 0.000000 0.000000 -0.000001 -0.000000 0.987504 -15.938404 -12.523929 7.959809 -1.482366 -5.013849 35.285946 -30.137042 30.494544 -0.000002 0.000001 -0.000000 -0.000000 -0.000001 -0.000000 1.063904 0.593131 -2.120355 2.211480 1.742098 -0.647244 2.220861 1.730778 -0.649602 -3.571430 14.431408 -3.968592 2.854597 45.809160 -4.721403 0.000001 -0.000000 -0.000002 0.000001 -0.000000 -0.000002 0.000001 -0.000000 -0.000001 0.000001 -0.000000 -0.000001 0.000001 0.000005 -0.000000 0.000001 -0.000000 -0.000001 0.000001 0.000005 -0.000000 0.000001 -0.000000 -0.000002 0.000001 -0.000000 -0.000002 0.565565 0.155045 -3.303710 22.128056 -32.831118 -61.579394 0.000238 -79.663058 0.000251 -1.560005 6.935273 -14.673522 -5.218581 -3.359711 5.596916 7.385521 23.148023 2.272605 0.000001 0.000003 0.000000 0.915767 5.403961 -29.714174 0.382364 2.083593 -20.795010 0.000002 -0.000001 -0.000000 0.656296 4.925779 -25.952641 0.379112 2.075026 -20.705421 -0.000000 0.000000 0.000001 0.574706 4.751495 -24.069208 0.379107 2.075042 -20.705415 -0.000002 0.000001 -0.000001 0.322890 4.082522 -17.072551 0.379111 2.075043 -20.705406 0.000001 0.000001 -0.000001 0.000003 -0.000002 0.000002 0.739978 3.223358 9.965573 38.132861 29.471109 34.358396 0.000258 102.453869 -0.000259 -38.616845 12.215442 12.503366 -8.245042 0.297089 -8.931533 7.579948 -24.795262 -2.907004 0.000001 -0.000002 -0.000003 0.905459 -3.314673 34.539457 0.217999 -1.409593 17.581791 -0.000001 0.000000 0.000000 -0.241998 -3.204345 32.825346 0.218124 -1.409975 17.586660 0.000002 0.000000 0.000001 -0.300129 -2.822085 28.489342 0.217997 -1.409602 17.581791 0.000001 -0.000000 -0.000001 0.330076 -3.878165 20.013566 0.218166 -1.410136 17.588683 -0.000001 0.000000 0.000002 -0.000000 -0.000001 0.000000 0.000000 -0.000000 -0.000000 0.000000 -0.000000 -0.000000 0.000000 -0.000000 -0.000000 0.000000 -0.000000 -0.000000 0.000000 -0.000000 -0.000000 0.000000 -0.000000 -0.000000 0.000000 -0.000000 -0.000000 0.000000 -0.000000 -0.000000 0.000000 -0.000000 -0.000000 0.000000 -0.000000 -0.000000 -0.000000 -0.000000 -0.000000 -0.000000 -0.000000 -0.000000 -0.000000 -0.000000 -0.000000 
-0.184022 78.469933 -1.643257 -95.665870 -7.212249 0.348173 -0.000001 0.000000 -0.000000 7.185807 16.176342 8.448445 5.448821 -1.049739 5.221177 34.208668 30.251659 -30.432055 0.000004 -0.000001 0.000000 -0.000000 -0.000001 -0.000001 1.057497 -15.963592 -12.546627 7.989806 -1.441945 -5.013867 35.271821 -30.137277 30.492738 -0.000001 0.000001 -0.000000 0.000000 0.000001 -0.000000 1.201248 0.587458 -2.141597 2.226887 1.742100 -0.640154 2.236471 1.730775 -0.641505 -3.621951 14.421526 -3.920733 2.860150 45.777174 -4.866273 0.000001 -0.000001 -0.000001 0.000001 -0.000001 -0.000001 0.000001 -0.000001 -0.000001 0.000001 -0.000001 -0.000000 -0.000000 0.000001 -0.000000 0.000001 -0.000001 -0.000000 -0.000000 0.000001 -0.000000 0.000001 -0.000001 -0.000001 0.000001 -0.000001 -0.000001 0.562943 0.203812 -3.324913 22.145213 -32.872625 -61.501318 0.000259 -79.719052 0.000253 -1.520695 6.868672 -14.619704 -5.218582 -3.359722 5.596914 7.385520 23.148028 2.272602 0.000002 0.000001 -0.000002 0.915768 5.403950 -29.714168 0.382363 2.083596 -20.795010 0.000002 0.000002 -0.000002 0.656296 4.925763 -25.952642 0.379110 2.075032 -20.705413 -0.000002 0.000002 -0.000001 0.574708 4.751489 -24.069209 0.379109 2.075035 -20.705413 -0.000002 -0.000002 -0.000001 0.322891 4.082515 -17.072551 0.379112 2.075043 -20.705406 -0.000002 -0.000001 0.000001 0.000002 0.000001 -0.000005 0.742849 3.178617 9.983821 38.138421 29.489004 34.300145 0.000281 102.458548 -0.000245 -38.614918 12.216697 12.495921 -8.245043 0.297086 -8.931527 7.579948 -24.795263 -2.907005 -0.000001 -0.000004 0.000001 0.905457 -3.314673 34.539457 0.217999 -1.409592 17.581791 -0.000000 -0.000000 0.000000 -0.242002 -3.204346 32.825343 0.218125 -1.409976 17.586660 0.000000 -0.000000 -0.000001 -0.300131 -2.822086 28.489344 0.217995 -1.409601 17.581790 -0.000001 -0.000001 -0.000000 0.330074 -3.878166 20.013568 0.218165 -1.410138 17.588687 -0.000001 0.000001 0.000001 -0.000000 0.000001 0.000001 -0.000000 0.000000 0.000000 -0.000000 0.000000 0.000000 -0.000000 0.000000 -0.000000 -0.000000 0.000000 -0.000000 -0.000000 0.000000 0.000000 -0.000000 0.000000 0.000000 -0.000000 0.000000 -0.000000 -0.000000 0.000000 -0.000000 -0.000000 0.000000 0.000000 -0.000000 0.000000 0.000000 -0.000001 0.000000 -0.000000 -0.000001 0.000000 -0.000000 -0.000001 0.000000 -0.000000 
